# xmcd
#
# Track frame offsets:
#	150
#	14172
#	25705
#	39425
#	56085
#	69082
#	81545
#
# Disc length: 1247
#
# Revision: 1
# Processed by: cddbd v1.5.1PL0 Copyright (c) Steve Scherf et al.
# Submitted via: VisiTrax 2.9.5.180 - For more info visit www.synapsa.com
# Normalized: r0:DSETVAR1
#
DISCID=5604dd07
DTITLE=Various Artist - CDX 99 December 1994
DYEAR=1994
DGENRE=
TTITLE0=Tracy Lawrence - As any fool can see
TTITLE1=Don Cox - Honey don't pay the ransom
TTITLE2=David Ball - Look what followed me home
TTITLE3=Davis Daniel - Tyler
TTITLE4=Marie Osmond - What kind of man ( walks on a woman)
TTITLE5=Doug Supernaw - What'll ou do about me
TTITLE6=Nick Lowe - Where's my everything
EXTD=
EXTT0=
EXTT1=
EXTT2=
EXTT3=
EXTT4=
EXTT5=
EXTT6=
PLAYORDER=
